<svg xmlns="http://www.w3.org/2000/svg" xmlns:svg="http://www.w3.org/2000/svg" id="svg4" width="80" height="80" fill="#fff" stroke-width="0" opacity=".8" version="1.1" viewBox="0 0 80 80"><metadata id="metadata10"/><path id="path2" d="M 51.25,17.5 A 3.75,3.75 0 0 1 55,13.75 h 7.5 a 3.75,3.75 0 0 1 3.75,3.75 v 45 h 1.874999 a 1.875,1.875 0 0 1 0,3.75 H 11.875001 a 1.875,1.875 0 0 1 0,-3.75 h 1.875 V 51.25 a 3.75,3.75 0 0 1 3.75,-3.75 h 7.5 a 3.75,3.75 0 0 1 3.75,3.75 V 62.5 h 3.75 V 36.25 a 3.75,3.75 0 0 1 3.75,-3.75 H 43.75 a 3.75,3.75 0 0 1 3.75,3.75 V 62.5 h 3.75 z" style="stroke-width:0"/></svg>