<svg xmlns="http://www.w3.org/2000/svg" xmlns:svg="http://www.w3.org/2000/svg" id="svg6" width="80" height="80" fill="#fff" stroke-width="0" opacity=".8" version="1.1" viewBox="0 0 80 80"><metadata id="metadata12"/><path id="path2" d="M 67,16 H 13 a 3,3 0 0 0 -3,3 v 42 a 3,3 0 0 0 3,3 h 54 a 3,3 0 0 0 3,-3 V 19 a 3,3 0 0 0 -3,-3 z m -3,33 a 9,9 0 0 0 -9,9 H 25 A 9,9 0 0 0 16,49 V 31 a 9,9 0 0 0 9,-9 h 30 a 9,9 0 0 0 9,9 z" style="stroke-width:0"/><path id="path4" d="m 40,28 c -6.618,0 -12,5.382 -12,12 0,6.618 5.382,12 12,12 6.618,0 12,-5.382 12,-12 0,-6.618 -5.382,-12 -12,-12 z m 0,18 c -3.309,0 -6,-2.691 -6,-6 0,-3.309 2.691,-6 6,-6 3.309,0 6,2.691 6,6 0,3.309 -2.691,6 -6,6 z" style="stroke-width:0"/></svg>