<svg xmlns="http://www.w3.org/2000/svg" xmlns:svg="http://www.w3.org/2000/svg" id="svg4" width="80" height="80" fill="#fff" stroke-width="0" opacity=".8" version="1.1" viewBox="0 0 80 80"><metadata id="metadata10"/><path id="path2" d="m 69.411761,16.47059 h -42.94117 c -0.32353,0 -0.58824,0.2647 -0.58824,0.58823 v 4.11765 c 0,0.32353 0.26471,0.58824 0.58824,0.58824 h 42.94117 c 0.32353,0 0.58824,-0.26471 0.58824,-0.58824 v -4.11765 c 0,-0.32353 -0.26471,-0.58823 -0.58824,-0.58823 z m 0,20.88235 h -42.94117 c -0.32353,0 -0.58824,0.26471 -0.58824,0.58824 v 4.11764 c 0,0.32353 0.26471,0.58824 0.58824,0.58824 h 42.94117 c 0.32353,0 0.58824,-0.26471 0.58824,-0.58824 v -4.11764 c 0,-0.32353 -0.26471,-0.58824 -0.58824,-0.58824 z m 0,20.88235 h -42.94117 c -0.32353,0 -0.58824,0.26471 -0.58824,0.58824 v 4.11765 c 0,0.32353 0.26471,0.58823 0.58824,0.58823 h 42.94117 c 0.32353,0 0.58824,-0.2647 0.58824,-0.58823 v -4.11765 c 0,-0.32353 -0.26471,-0.58824 -0.58824,-0.58824 z M 10.000001,19.11765 a 4.1176471,4.1176471 0 1 0 8.23529,0 4.1176471,4.1176471 0 1 0 -8.23529,0 z m 0,20.88235 a 4.1176471,4.1176471 0 1 0 8.23529,0 4.1176471,4.1176471 0 1 0 -8.23529,0 z m 0,20.88235 a 4.1176471,4.1176471 0 1 0 8.23529,0 4.1176471,4.1176471 0 1 0 -8.23529,0 z" style="stroke-width:0"/></svg>