<svg xmlns="http://www.w3.org/2000/svg" xmlns:svg="http://www.w3.org/2000/svg" id="svg4" width="80" height="80" fill="#fff" stroke-width="0" opacity=".8" version="1.1" viewBox="0 0 80 80"><metadata id="metadata10"/><path id="path2" d="M 40,10 C 23.42742,10 10,23.42742 10,40 10,56.57258 23.42742,70 40,70 56.57258,70 70,56.57258 70,40 70,23.42742 56.57258,10 40,10 Z m 0,11.6129 c 5.87903,0 10.64516,4.766132 10.64516,10.645165 0,5.879032 -4.76613,10.645161 -10.64516,10.645161 -5.87903,0 -10.64516,-4.766129 -10.64516,-10.645161 C 29.35484,26.379033 34.12097,21.6129 40,21.6129 Z m 0,41.612906 c -7.1008,0 -13.46371,-3.217742 -17.72177,-8.25 2.27419,-4.282257 6.7258,-7.23387 11.91532,-7.23387 0.29032,0 0.58064,0.04839 0.85887,0.133064 1.57258,0.508064 3.21774,0.834677 4.94758,0.834677 1.72984,0 3.3871,-0.326613 4.94758,-0.834677 0.27822,-0.08468 0.56855,-0.133064 0.85887,-0.133064 5.18952,0 9.64113,2.951613 11.91532,7.23387 -4.25806,5.032258 -10.62097,8.25 -17.72177,8.25 z" style="opacity:.8;fill:#fff;stroke-width:0"/></svg>