<svg xmlns="http://www.w3.org/2000/svg" xmlns:svg="http://www.w3.org/2000/svg" id="svg4" width="80" height="80" fill="#fff" stroke-width="0" opacity=".8" version="1.1" viewBox="0 0 80 80"><metadata id="metadata10"/><path id="path2" d="m 45.26875,13.937502 c -1.54875,-5.2500005 -8.98875,-5.2500005 -10.5375,0 l -0.374999,1.275 a 5.4899996,5.4899993 0 0 1 -7.893751,3.27 l -1.162499,-0.6375 c -4.81125,-2.6175 -10.072499,2.64375 -7.451249,7.451249 l 0.63375,1.16625 c 1.672499,3.075 0.08625,6.90375 -3.27,7.89375 l -1.275,0.375 c -5.2500005,1.548749 -5.2500005,8.988748 0,10.537498 l 1.275,0.375 a 5.4899996,5.4899993 0 0 1 3.27,7.89375 l -0.6375,1.1625 c -2.6175,4.811249 2.64375,10.072499 7.451249,7.451249 l 1.16625,-0.63375 a 5.4899996,5.4899993 0 0 1 7.89375,3.27 l 0.374999,1.275 c 1.54875,5.25 8.98875,5.25 10.5375,0 l 0.374999,-1.275 a 5.4899996,5.4899993 0 0 1 7.893751,-3.27 l 1.1625,0.6375 c 4.811248,2.6175 10.072498,-2.64375 7.451248,-7.451249 l -0.633749,-1.16625 a 5.4899996,5.4899993 0 0 1 3.269999,-7.89375 l 1.275001,-0.375 c 5.25,-1.54875 5.25,-8.988749 0,-10.537498 l -1.275001,-0.375 a 5.4899996,5.4899993 0 0 1 -3.269999,-7.89375 l 0.6375,-1.1625 c 2.617499,-4.811249 -2.643751,-10.072499 -7.45125,-7.451249 l -1.166249,0.63375 a 5.4899996,5.4899993 0 0 1 -7.893751,-3.27 z M 40,50.9875 A 10.987501,10.9875 0 1 1 40,29.012501 10.983751,10.98375 0 0 1 40,50.98 Z" style="stroke-width:0"/></svg>