<svg xmlns="http://www.w3.org/2000/svg" xmlns:svg="http://www.w3.org/2000/svg" id="svg8" width="80" height="80" fill="#fff" stroke-width="0" opacity=".8" version="1.1" viewBox="0 0 80 80"><metadata id="metadata14"/><g style="opacity:.8;fill:#fff;stroke-width:0" id="g6" transform="matrix(2.5,0,0,2.5,10,10)"><path id="path2" d="M 0,0 H 24 V 24 H 0 Z" style="fill:none"/><path id="path4" d="M 5.33,3.271 A 3.5,3.5 0 0 1 9.802,7.745 L 20.647,18.59 18.525,20.711 7.68,9.867 A 3.5,3.5 0 0 1 3.208,5.393 L 5.444,7.63 A 1.5,1.5 0 1 0 7.565,5.509 L 5.329,3.27 Z m 10.367,1.884 3.182,-1.768 1.414,1.414 -1.768,3.182 -1.768,0.354 -2.12,2.121 -1.415,-1.414 2.121,-2.121 z m -7.071,7.778 2.121,2.122 -4.95,4.95 A 1.5,1.5 0 0 1 3.58,17.99 l 0.097,-0.107 4.95,-4.95 z"/></g></svg>